<?xml version="1.0" encoding="utf-8"?>
<svg xmlns:x="http://ns.adobe.com/Extensibility/1.0/" xmlns:i="http://ns.adobe.com/AdobeIllustrator/10.0/" xmlns:graph="http://ns.adobe.com/Graphs/1.0/" xmlns="http://www.w3.org/2000/svg" xmlns:xlink="http://www.w3.org/1999/xlink" version="1.1" id="Art" x="0px" y="0px" width="576px" height="197.6452637px" viewBox="0 0 576 197.6452637" style="enable-background:new 0 0 576 197.6452637;" xml:space="preserve">
<style type="text/css">
	.st0{fill:#650030;}
	.st1{fill:#FF4F17;}
	.st2{fill:#FFFFFF;}
</style>
<switch>
	
	<g>
		<g id="Logo">
			<path id="Legal_mark" class="st0" d="M530.8564453,140.7848206c-1.3969727-0.4012909-2.4136353-0.8947449-3.0499268-1.4803467     c-0.6363525-0.5856018-0.9547119-1.3077393-0.9547119-2.1678619c0-0.9727631,0.3890991-1.777298,1.1668091-2.4136047     c0.77771-0.636322,1.7885132-0.9542389,3.0328369-0.9542389c0.8484497,0,1.6051636,0.1638336,2.2697754,0.4919891     s1.1795044,0.7806396,1.5441895,1.3574677c0.3647461,0.576828,0.5471191,1.2077789,0.5471191,1.8918915h-1.6373901     c0-0.7494507-0.2374268-1.3379669-0.7128296-1.766571c-0.4749146-0.4286041-1.1453857-0.6431427-2.0108643-0.6431427     c-0.8031006,0-1.4291382,0.1774902-1.8792114,0.5314789c-0.4495239,0.3544922-0.6743164,0.8454895-0.6743164,1.4745026     c0,0.5046539,0.213562,0.9308167,0.640686,1.2794495c0.4266357,0.3481445,1.1536255,0.667038,2.180542,0.9561768     c1.0263672,0.2886658,1.8294678,0.6070709,2.4092407,0.9552155c0.5797119,0.3476562,1.0097656,0.7538147,1.2896729,1.2175293     c0.2799072,0.4636993,0.4197998,1.0093231,0.4197998,1.6373444c0,1.0010376-0.3900757,1.8026581-1.1707153,2.4053192     c-0.7806396,0.6021881-1.8240967,0.9035187-3.1308594,0.9035187c-0.8483887,0-1.6402588-0.1628571-2.3755493-0.4880829     c-0.7352905-0.3247375-1.3018799-0.770401-1.7007446-1.3360138s-0.5983276-1.2077789-0.5983276-1.9260101h1.6373901     c0,0.7465057,0.276001,1.3365021,0.8274536,1.7689972c0.5514526,0.4325104,1.288208,0.6490021,2.2097778,0.6490021     c0.8601074,0,1.5188599-0.1750488,1.9772339-0.526123c0.4578247-0.3505859,0.6870117-0.8284302,0.6870117-1.4335327     c0-0.6051178-0.2120972-1.0732117-0.6362915-1.4042816C532.7399902,141.4338074,531.9705811,141.107605,530.8564453,140.7848206z      M539.8028564,133.9384613l4.038269,10.0791321l4.0388184-10.0791321h2.1122437v12.3527985h-1.6290894v-4.8106384     l0.1531372-5.1924286l-4.0558472,10.003067h-1.2467651l-4.0470581-9.9772339l0.1608887,5.1665955v4.8106384h-1.6286011     v-12.3527985H539.8028564z"></path>
			<path id="Wordmark" class="st0" d="M214.1786957,141.0205994v18.2000885h20.9178009l-0.0824432,7.0821381h-20.8353577v25.2822266     h-8.3997803v-57.6465912h31.7059174l-0.1649017,7.0821381H214.1786957z M248.9294281,132.0440521     c2.7998047,0,4.8587189,2.305481,4.8587189,5.0236206c0,2.799408-2.0589142,4.8587189-4.8587189,4.8587189     c-2.8001862,0-4.8591003-2.0593109-4.8591003-4.8587189     C244.0703278,134.3495331,246.1292419,132.0440521,248.9294281,132.0440521z M253.1293182,149.9143219v36.4001465v5.2705841     h-8.400177v-41.3409271L253.1293182,149.9143219z M300.1503296,166.4677277v25.1173248h-8.3998108v-24.4584961     c0-6.4241028-1.9764404-10.7881317-7.9058533-10.7881317c-4.6942139,0-8.5646973,2.7994232-10.7881165,6.6702881v28.5763397     h-8.400177v-29.8939819c0-4.1998901-0.0824585-7.8238068-0.2469788-11.4469452l7.3294983-0.3298035l0.658844,6.259201h0.1644897     c3.0471497-3.6239166,7.4944153-6.8351746,13.7528381-6.8351746     C294.303772,149.3383484,300.1503296,154.3611755,300.1503296,166.4677277z M391.2261047,166.4677277v25.1173248h-8.3997803     v-24.4584961c0-6.4241028-1.9764709-10.7881317-7.9058838-10.7881317c-4.6942139,0-8.5646973,2.7994232-10.7881165,6.6702881v28.5763397h-8.400177v-29.8939819c0-4.1998901-0.0824585-7.8238068-0.2469788-11.4469452l7.3294983-0.3298035l0.658844,6.259201     h0.1644897c3.0471497-3.6239166,7.4944153-6.8351746,13.7528381-6.8351746     C385.3795471,149.3383484,391.2261047,154.3611755,391.2261047,166.4677277z M348.3240662,184.6670227l0.1648865,6.5061646     c-6.2591858,2.3062744-11.7767334,1.4825592-13.6703491-4.7766571h-0.164917     c-2.9650879,3.7059784-7.2470398,6.0122986-12.6825256,6.0122986c-7.4119263,0-12.7645874-5.1065063-12.7645874-11.9416962     c0-9.7994995,9.140686-16.3056641,25.0352478-11.1171417v-4.9415741c0-5.1056824-0.9057617-8.3177338-8.3997803-8.3177338     c-5.0236206,0-10.2941895,1.2355957-13.5062561,2.6352997l-0.4938965-6.4233246     c3.6231079-1.8115692,9.3883972-3.0471649,14.9059448-3.0471649c9.7174377,0,15.8937988,3.9529419,15.8937988,13.2593079     v15.8937988C342.6416321,184.9147644,343.7123108,186.1495667,348.3240662,184.6670227z M334.3238831,180.0560455v-5.4354858     c-11.6118164-4.3647919-16.7995605-0.4946899-16.7995605,5.1877441c0,4.4476471,3.5410767,6.5061646,7.4111633,6.5061646     C329.3002625,186.3144684,333.9120178,182.8554535,334.3238831,180.0560455z M422.2700195,149.4203949     c3.9529419,0,8.3997803,0.8237305,11.1999817,2.0585327l-0.1648865,6.5882263     c-2.3055115-1.0706787-6.8352051-1.9764709-10.7881165-1.9764709c-8.4818726,0-13.3413696,5.6824493-13.3413696,14.8239136     c0,9.141449,4.8594971,14.8231201,13.3413696,14.8231201c3.9529114,0,8.482605-0.9057922,10.7881165-1.9764709     l0.1648865,6.5882263c-2.8002014,1.2355804-7.2470398,2.0593109-11.1999817,2.0593109     c-13.6703491,0-21.7411194-8.4826355-21.7411194-21.4941864 C4.05289001,157.9030304,408.5996704,149.4203949,422.2700195,149.4203949z M446.7269592,132.0440521     c2.8001709,0,4.8587036,2.305481,4.8587036,5.0236206c0,2.799408-2.0585327,4.8587189-4.8587036,4.8587189     c-2.8002014,0-4.8587341-2.0593109-4.8587341-4.8587189     C441.8682251,134.3495331,443.9267578,132.0440521,446.7269592,132.0440521z M450.9268494,149.9143219v36.4001465v5.2705841     h-8.3998108v-41.3409271L450.9268494,149.9143219z M499.1834106,184.6670227l0.164917,6.5061646     c-6.2592163,2.3062744-11.7767334,1.4825592-13.6711426-4.7766571h-0.1641235     c-2.9650879,3.7059784-7.2470398,6.0122528-12.6825256,6.0122528c-7.4119568,0-12.7645874-5.1064606-12.7645874-11.9416504     c0-9.7994995,9.141449-16.3056641,25.0352478-11.1171417v-4.9415741c0-5.1056824-0.9057922-8.3177338-8.3997803-8.3177338     c-5.0236206,0-10.29422,1.2355957-13.5062561,2.6352997l-0.493927-6.4233246     c3.6231384-1.8115692,9.3884277-3.0471649,14.9059448-3.0471649c9.7174377,0,15.8937988,3.9529419,15.8937988,13.2593079     v15.8937988C493.5009766,184.9147644,494.5716553,186.1495667,499.1834106,184.6670227z M485.1832581,180.0560455v-5.4354858     c-11.6118469-4.3647919-16.7995911-0.4946899-16.7995911,5.1877441c0,4.4476471,3.5410767,6.5061646,7.4119568,6.5061646     C480.1596375,186.3144684,484.7713928,182.8554535,485.1832581,180.0560455z M519.850769,184.6670227l0.2469482,6.5061646     c-2.1413574,0.7416687-4.1998901,1.1527557-6.0942993,1.1527557c-3.7059937,0-8.2348938-2.1405945-8.2348938-8.5646973     v-53.5287628l8.3998108-0.3298035v48.5059204C514.168335,184.9147644,515.3210449,186.1495667,519.850769,184.6670227z      M222.1318054,99.5859146h33.5291443l-0.8237457,13.7644424h-49.0582886V30.9981651h16.35289V99.5859146z      M272.7180176,25.7040272c5.0588989,0,9.0588074,4.1179237,9.0588074,9.0588055     c0,5.0588913-3.9999084,8.9411812-9.0588074,8.9411812c-4.9412842,0-8.9411926-3.8822899-8.9411926-8.9411812     C263.776825,29.8219509,267.7767334,25.7040272,272.7180176,25.7040272z M280.953064,53.5861702v49.8965569v9.86763h-16.3525085     V54.0566559L280.953064,53.5861702z M349.7745056,77.7036438v35.6467133h-16.4701233V78.9978714     c0-7.8822021-1.9999695-13.0587158-8.9407959-13.0587158c-5.5293884,0-10.1177979,3.2941818-12.8234558,7.9998169v39.4113846     h-16.3529053V72.2918854c0-6.8232193-0.1180115-12.7058525-0.3532715-18.2352295l14.1177063-0.4704857l1.1762085,7.9998169     h0.3532715c3.9999084-4.4703941,10.2350159-8.9407921,19.0585632-8.9407921     C342.7164307,52.645195,349.7745056,61.5859871,349.7745056,77.7036438z M393.4194946,52.8804398     c5.2941284,0,11.5292358,0.9409714,15.8823853,2.7056847l-0.2352295,12.3529854     c-3.0589294-1.41185-9.5292969-2.5884552-14.9414368-2.5884552c-10.1170044,0-16.5881348,6.3531189-16.5881348,18.3528519     c0,12.0001221,6.4711304,18.3528519,16.5881348,18.3528519c5.4121399,0,11.8825073-1.1766052,14.9414368-2.5880661     l0.2352295,12.3526001c-4.3531494,1.7647095-10.5882568,2.7060318-15.8823853,2.7060318     c-20.9405212,0-32.5877991-12.5881882-32.5877991-30.8234177     C360.8316956,65.4686661,372.4789734,52.8804398,393.4194946,52.8804398z M446.8282166,114.6445847     c-15.4119263,0-29.8821106-9.4116669-29.8821106-30.7058334c0-22.3527641,14.4701843-31.2935562,29.8821106-31.2935562     s29.8820801,9.0588074,29.8820801,31.2935562C476.7102966,104.997673,462.2401428,114.6445847,446.8282166,114.6445847z      M446.8282166,64.7625504c-8.1178284,0-13.0587158,5.9998627-13.0587158,18.9409561s4.9408875,18.9409561,13.0587158,18.9409561     s13.0587158-5.9998627,13.0587158-18.9409561S454.9460449,64.7625504,446.8282166,64.7625504z M511.2964783,100.4092636     l0.117218,12.3529892c-2.940918,0.9409714-6.3531189,1.6470871-9.4112549,1.6470871     c-5.6473999,0-14.3529663-2.8236923-14.3529663-13.7648315V25.7040272l16.3529053-0.4704857v65.646431     C504.0023804,100.4092636,505.6490784,101.938736,511.2964783,100.4092636z M576,77.7036438v35.6467133h-16.4701538V78.9978714     c0-7.8822021-1.999939-13.0587158-8.9407959-13.0587158c-5.5293579,0-10.1177979,3.2941818-12.8234253,7.9998169v39.4113846     h-16.3529053V72.2918854c0-6.8232193-0.118042-12.7058525-0.3532715-18.2352295l14.1176758-0.4704857l0.1762085,7.9998169     h0.3532715c3.999939-4.4703941,10.2350464-8.9407921,19.0585938-8.9407921C568.9418945,52.645195,576,61.5859871,576,77.7036438z     "></path>
			<g id="Symbol">
				<path id="Background_00000122694659732509214520000015970527834675753130_" class="st1" d="M91.4633331,1.5354539      c0.0017319,0.0003909,0.0034637,0.0008377,0.0051346,0.0012287c12.8170776,2.9535255,20.019989,10.0465221,20.019989,19.1653557      c0,0,0.3576736,0.2915421,2.421936,2.0272884c16.1391068,13.5717945,10.3076859,23.6099949,18.6204758,38.0082245      l2.9350891,5.0836945l-10.1850357,17.6397171l-0.1357193,0.2430115c0,0.0000534,0.000061,0.0000534,0.000061,0.0001144      l0.0005569-0.0001144c0.9688492,5.3651276,1.4511032,8.4761505,1.4702072,13.0339508      c-0.0001144,0.0030136,0.0001144-0.0031281,0,0c0.0370331,3.7892838-0.7223053,8.541832-3.0852585,12.6832581      c-0.9930344,1.7402115-1.6617966,2.8929825-2.3237457,4.0260925c-1.9853973,3.3995514-2.8498688,5.6587372-2.8498688,11.2388916      l0.0000229,10.7790146c0.9080353,2.4716949,1.5862656,4.264801,2.438446,6.6193695      c1.0207367,2.8200989,5.0087357,12.250412-5.7268753,21.1656647c-2.8847198,2.3956299-4.6789932,3.9222717-4.6789932,3.9222717      l21.0041962,12.1182709c25.0889435-17.9219513,41.4440765-47.2850037,41.4440765-80.468132      C172.838028,50.1980858,137.7197723,9.7757463,91.4633331,1.5354539z"></path>
				<path id="Face" class="st2" d="M78.9225388,128.743576l-2.2255859,1.8675537      c2.4717026,1.765976,5.0006332,2.1250153,9.3930283,2.1250153h21.1833038c1.1757507,0,1.9693451,1.254364,1.4117355,2.2893372      c-0.9313965,1.7285004-2.891716,2.9669647-5.2788849,2.9669647h-9.3047562      c-3.6655045,0-6.3023071-0.7141571-8.8008652-1.6260223c-0.3233795-0.1180115-0.6846237-0.0642242-0.948349,0.1570435      c3.2600098,5.6566162,9.7732086,5.9594421,13.8739243,5.9594421h11.8402939      c-2.4827042,4.2868042-4.0914688,5.940506-8.4464417,5.940506s-16.5875473,0-21.0222168,0      c-4.4344406,0-6.322113,0.6495667-9.0579758,2.9427643c-1.3542862,1.1350098-1.8570786,1.5563202-2.0265884,1.6983643      c0-0.0001068-7.3864784-6.1980133-13.1655159-11.0548706c-4.4947624-3.7774811-4.4789124-7.2734222-4.4789124-12.5956726      c0-5.3222809,0-5.9198151,0-5.9198151c0-5.7726593-0.4191399-11.2135391-3.3696365-16.3113098      c-0.9133492-1.5778885-3.7443123-6.4640274-4.5665245-7.9090576c-2.5932159-4.5578003-3.1032753-7.9400711-3.1032753-14.3223724      V45.2997169c0-13.6226349,15.9172363-22.7928047,27.974369-18.39818      c7.24823,2.6418381,10.8912811,3.9641476,14.9781265,5.4516125c5.0867081,1.8514099,10.6645432,2.6462402,14.2281189-0.3411827      c2.5632782-2.1491451,4.6087952-3.8080978,4.6087952-3.8080978s1.499794,1.2547817,2.2187576,1.8581219      c13.0191345,10.9237003,19.8451462,22.0863018,19.8451462,34.250061c0,2.023941,0,5.433754,0,5.433754      s-7.8304977,2.835701-10.3482056,3.759285c-3.3762436,1.2384644-4.2314758,1.4751129-5.879425,4.387825      c-0.6687775,1.1820297-1.0372849,1.8090591-1.5136642,2.6259079c-0.9848938,1.6886978-0.5195236,4.1921539,1.1297455,7.0394592      c3.0251236,5.221962,4.9852295,10.0441971,8.1340637,18.8935471c1.2574234,3.5347977-0.9245758,6.8985214-4.7815933,6.8985214      c-4.8055954,0-14.6153412,0-14.6153412,0c-4.3102875,0-5.6269302,3.8344574-0.9305267,5.5362854      c0,0,3.2091599,1.1755524,5.3968887,1.9717941c5.8866806,2.1426163,7.5366135,3.4549637,9.5343552,6.9153824      c0.4127579,0.715065,0.8098831,1.3982925,1.3725586,2.3772202c0,0-1.8034744-0.6887665-3.9685822-1.4278259      c-1.580307-0.539444-2.2203598,1.5878296-3.6741409,1.5878296c-1.4537888,0-2.4998779-1.9382477-4.7782974-1.6498413      c-2.2784195,0.2884216-9.5674362,1.2921753-15.0747147,2.0158691c-2.8725967,0.3774872-3.4768448-0.5259552-3.4768448-2.422821      h-0.9417496C79.7753525,128.2542419,79.2991943,128.4274902,78.9225388,128.743576z"></path>
				<path id="Head" class="st0" d="M115.0687714,163.2501831c10.7355957-8.9152222,6.7476196-18.3455811,5.7268677-21.1656494      c-0.8521729-2.3545532-1.5303955-4.1477051-2.4384766-6.6193848v-10.7789917      c0-5.5801392,0.864502-7.8393555,2.8499146-11.2388916c0.6619263-1.1331177,1.3306885-2.2858887,2.3237305-4.026123      c2.3623657-4.1403198,3.1218872-8.8944092,3.0852051-12.6832275c-0.1123657,2.8797607-3.3553467,6.744812-6.7178955,6.744812      l-4.2767944-11.7718506h0.951416c2.8952637,0,4.6946411-1.2698975,6.4326172-4.314209      c0,0,2.1401978-3.6925659,2.1401978-3.692627l0.135376-0.243103l10.1850586-17.6397095l-2.9351196-5.0836792      c-8.3127441-14.3982544-2.4813232-24.4364624-18.6204224-38.0082397c-2.06427-1.7357178-2.421936-2.0272827-2.421936-2.0272827      c0-9.1200562-7.2049561-16.2138062-20.0252686-19.1665649C85.7996063,0.5265503,79.9690399,0,74.0154266,0      c-11.0828857,0-21.739624,1.8244019-31.6862793,5.1893311c-0.1896973,0.0743408-0.3729858,0.1434937-0.5455933,0.2039795      C29.4642181,10.072998,15.2841644,22.4310913,15.2841644,37.3051147c0,0-2.1243286,3.7686768-4.2498169,7.442627      c-14.526123,25.1079712-15.321106,47.3313599,1.2723999,67.0452881      c3.9317017,4.6709595,17.5482178,21.0899048,17.5482178,21.0899048v-17.22229      c-4.0522461,2.6236572-8.0576172,2.3966675-13.2277832-6.5584106c-0.7755737-1.3429565-4.5064087-7.9234009-5.5722656-9.7753296      c-6.93396-12.0452881-3.5220337-26.8029785,8.2288818-26.8029785c11.5769653,0,17.4364014,19.3210449,17.4364014,34.815979      v25.3755493c0,11.7909546,4.3415527,19.2662354,13.5396729,26.9122314      c4.1069946,3.4139404,7.8677979,6.6400757,12.0098267,10.1156006      c4.1566772,3.4880371,10.5967407,5.3618164,17.5266724,5.3618164h12.3786011      c5.1016846,0,10.1843872-1.1918945,13.538147-4.0064697l3.2462158-2.734314v12.1870728      c-23.772644,0-30.8650513,0.9338379-46.4789429,9.961792c0,0-4.6212769-3.8775635-10.9209595-9.1637573      c-12.2336426-10.2651978-21.7044678-22.736145-21.7044678-32.9974365L4.8326874,169.3892822      c17.8257446,17.4783325,42.2456055,28.2559814,69.1827393,28.2559814c21.3952637,0,41.2024536-6.7992554,57.3788452-18.3547363      l-21.0044556-12.118042C110.3898163,167.1724854,112.1840668,165.645813,115.0687714,163.2501831z"></path>
			</g>
		</g>
	</g>
</switch>

</svg>
